<mxfile host="app.diagrams.net" modified="2023-06-19T01:36:01.869Z" agent="Mozilla/5.0 (Macintosh; Intel Mac OS X 10_15_7) AppleWebKit/537.36 (KHTML, like Gecko) Chrome/114.0.0.0 Safari/537.36" etag="RdM3QPrewqloqnpgWJVb" version="21.5.0" type="device">
  <diagram name="Page-1" id="DsXS6bJ_k7rGXEehjF5O">
    <mxGraphModel dx="994" dy="636" grid="1" gridSize="10" guides="1" tooltips="1" connect="1" arrows="1" fold="1" page="1" pageScale="1" pageWidth="827" pageHeight="1169" math="0" shadow="0">
      <root>
        <mxCell id="0" />
        <mxCell id="1" parent="0" />
        <mxCell id="J49svgTcQpmMEFE0HYhK-1" value="" style="rounded=1;arcSize=3;dashed=0;fillColor=none;gradientColor=none;strokeWidth=2;" vertex="1" parent="1">
          <mxGeometry x="40" y="196" width="320" height="224" as="geometry" />
        </mxCell>
        <mxCell id="J49svgTcQpmMEFE0HYhK-2" value="" style="dashed=0;html=1;shape=mxgraph.aws3.cloud;fillColor=#F58536;gradientColor=none;dashed=0;" vertex="1" parent="1">
          <mxGeometry x="52" y="180" width="52" height="36" as="geometry" />
        </mxCell>
        <mxCell id="J49svgTcQpmMEFE0HYhK-3" value="ACCOUNT-A" style="text;html=1;strokeColor=none;fillColor=none;align=center;verticalAlign=middle;whiteSpace=wrap;rounded=0;fontFamily=Comic Sans MS;fontSize=14;fontStyle=1" vertex="1" parent="1">
          <mxGeometry x="44" y="211" width="110" height="30" as="geometry" />
        </mxCell>
        <mxCell id="J49svgTcQpmMEFE0HYhK-4" value="" style="rounded=1;arcSize=3;dashed=0;fillColor=none;gradientColor=none;strokeWidth=2;" vertex="1" parent="1">
          <mxGeometry x="479" y="196" width="320" height="224" as="geometry" />
        </mxCell>
        <mxCell id="J49svgTcQpmMEFE0HYhK-5" value="" style="dashed=0;html=1;shape=mxgraph.aws3.cloud;fillColor=#F58536;gradientColor=none;dashed=0;" vertex="1" parent="1">
          <mxGeometry x="491" y="180" width="52" height="36" as="geometry" />
        </mxCell>
        <mxCell id="J49svgTcQpmMEFE0HYhK-6" value="ACCOUNT-B" style="text;html=1;strokeColor=none;fillColor=none;align=center;verticalAlign=middle;whiteSpace=wrap;rounded=0;fontFamily=Comic Sans MS;fontSize=14;fontStyle=1" vertex="1" parent="1">
          <mxGeometry x="483" y="211" width="110" height="30" as="geometry" />
        </mxCell>
        <mxCell id="J49svgTcQpmMEFE0HYhK-10" style="edgeStyle=orthogonalEdgeStyle;rounded=0;orthogonalLoop=1;jettySize=auto;html=1;endArrow=none;endFill=0;fillColor=#60a917;strokeColor=#2D7600;strokeWidth=3;" edge="1" parent="1" target="J49svgTcQpmMEFE0HYhK-9">
          <mxGeometry relative="1" as="geometry">
            <mxPoint x="281.0999999999999" y="274" as="sourcePoint" />
          </mxGeometry>
        </mxCell>
        <mxCell id="J49svgTcQpmMEFE0HYhK-8" value="Trust Policy" style="text;html=1;strokeColor=none;fillColor=none;align=center;verticalAlign=middle;whiteSpace=wrap;rounded=0;fontFamily=Comic Sans MS;fontSize=14;fontStyle=1;rotation=90;" vertex="1" parent="1">
          <mxGeometry x="265" y="246" width="100" height="30" as="geometry" />
        </mxCell>
        <mxCell id="J49svgTcQpmMEFE0HYhK-30" style="edgeStyle=orthogonalEdgeStyle;rounded=0;orthogonalLoop=1;jettySize=auto;html=1;" edge="1" parent="1" source="J49svgTcQpmMEFE0HYhK-9" target="J49svgTcQpmMEFE0HYhK-28">
          <mxGeometry relative="1" as="geometry" />
        </mxCell>
        <mxCell id="J49svgTcQpmMEFE0HYhK-9" value="" style="sketch=0;outlineConnect=0;fontColor=#232F3E;gradientColor=none;fillColor=#BF0816;strokeColor=none;dashed=0;verticalLabelPosition=bottom;verticalAlign=top;align=center;html=1;fontSize=12;fontStyle=0;aspect=fixed;pointerEvents=1;shape=mxgraph.aws4.role;" vertex="1" parent="1">
          <mxGeometry x="254.57" y="316" width="53.18" height="30" as="geometry" />
        </mxCell>
        <mxCell id="J49svgTcQpmMEFE0HYhK-11" value="ROLE" style="text;html=1;strokeColor=none;fillColor=none;align=center;verticalAlign=middle;whiteSpace=wrap;rounded=0;fontFamily=Comic Sans MS;fontSize=14;fontStyle=1;rotation=0;" vertex="1" parent="1">
          <mxGeometry x="254.57" y="340" width="60" height="25" as="geometry" />
        </mxCell>
        <mxCell id="J49svgTcQpmMEFE0HYhK-12" value="" style="sketch=0;outlineConnect=0;fontColor=#232F3E;gradientColor=none;fillColor=#3F8624;strokeColor=none;dashed=0;verticalLabelPosition=bottom;verticalAlign=top;align=center;html=1;fontSize=12;fontStyle=0;aspect=fixed;pointerEvents=1;shape=mxgraph.aws4.bucket_with_objects;" vertex="1" parent="1">
          <mxGeometry x="71.11" y="303" width="55.77" height="58" as="geometry" />
        </mxCell>
        <mxCell id="J49svgTcQpmMEFE0HYhK-13" value="s3::/shared-docs" style="text;html=1;strokeColor=none;fillColor=none;align=center;verticalAlign=middle;whiteSpace=wrap;rounded=0;fontFamily=Comic Sans MS;fontSize=14;fontStyle=1;rotation=0;" vertex="1" parent="1">
          <mxGeometry x="44" y="365" width="125" height="25" as="geometry" />
        </mxCell>
        <mxCell id="J49svgTcQpmMEFE0HYhK-17" style="edgeStyle=orthogonalEdgeStyle;rounded=0;orthogonalLoop=1;jettySize=auto;html=1;fillColor=#008a00;strokeColor=#005700;strokeWidth=3;endArrow=blockThin;endFill=1;" edge="1" parent="1" source="J49svgTcQpmMEFE0HYhK-14" target="J49svgTcQpmMEFE0HYhK-9">
          <mxGeometry relative="1" as="geometry" />
        </mxCell>
        <mxCell id="J49svgTcQpmMEFE0HYhK-14" value="" style="verticalLabelPosition=bottom;html=1;verticalAlign=top;align=center;strokeColor=none;fillColor=#00BEF2;shape=mxgraph.azure.user;" vertex="1" parent="1">
          <mxGeometry x="514" y="306" width="47.5" height="50" as="geometry" />
        </mxCell>
        <mxCell id="J49svgTcQpmMEFE0HYhK-15" value="IAM User" style="text;html=1;strokeColor=none;fillColor=none;align=center;verticalAlign=middle;whiteSpace=wrap;rounded=0;fontFamily=Comic Sans MS;fontSize=14;fontStyle=1;rotation=0;" vertex="1" parent="1">
          <mxGeometry x="503" y="352" width="78" height="25" as="geometry" />
        </mxCell>
        <mxCell id="J49svgTcQpmMEFE0HYhK-18" value="sts:AssumeRole" style="text;html=1;strokeColor=none;fillColor=none;align=center;verticalAlign=middle;whiteSpace=wrap;rounded=0;fontFamily=Comic Sans MS;fontSize=14;fontStyle=1;rotation=0;" vertex="1" parent="1">
          <mxGeometry x="360" y="301" width="120" height="25" as="geometry" />
        </mxCell>
        <mxCell id="J49svgTcQpmMEFE0HYhK-22" style="edgeStyle=orthogonalEdgeStyle;rounded=0;orthogonalLoop=1;jettySize=auto;html=1;entryX=0.87;entryY=0.65;entryDx=0;entryDy=0;entryPerimeter=0;endArrow=none;endFill=0;fillColor=#d80073;strokeColor=#A50040;strokeWidth=3;" edge="1" parent="1" source="J49svgTcQpmMEFE0HYhK-20" target="J49svgTcQpmMEFE0HYhK-14">
          <mxGeometry relative="1" as="geometry" />
        </mxCell>
        <mxCell id="J49svgTcQpmMEFE0HYhK-20" value="" style="sketch=0;outlineConnect=0;fontColor=#232F3E;gradientColor=none;fillColor=#BF0816;strokeColor=none;dashed=0;verticalLabelPosition=bottom;verticalAlign=top;align=center;html=1;fontSize=12;fontStyle=0;aspect=fixed;pointerEvents=1;shape=mxgraph.aws4.waf_rule;" vertex="1" parent="1">
          <mxGeometry x="639" y="313" width="50" height="50" as="geometry" />
        </mxCell>
        <mxCell id="J49svgTcQpmMEFE0HYhK-21" value="" style="sketch=0;outlineConnect=0;fontColor=#232F3E;gradientColor=none;fillColor=#BF0816;strokeColor=none;dashed=0;verticalLabelPosition=bottom;verticalAlign=top;align=center;html=1;fontSize=12;fontStyle=0;aspect=fixed;pointerEvents=1;shape=mxgraph.aws4.waf_rule;" vertex="1" parent="1">
          <mxGeometry x="253" y="221" width="50" height="50" as="geometry" />
        </mxCell>
        <mxCell id="J49svgTcQpmMEFE0HYhK-23" value="identity-based policy" style="text;html=1;strokeColor=none;fillColor=none;align=center;verticalAlign=middle;whiteSpace=wrap;rounded=0;fontFamily=Comic Sans MS;fontSize=14;fontStyle=1;rotation=90;" vertex="1" parent="1">
          <mxGeometry x="623" y="317" width="150" height="30" as="geometry" />
        </mxCell>
        <mxCell id="J49svgTcQpmMEFE0HYhK-24" value="allows user to assume the role in Account::A" style="text;html=1;strokeColor=none;fillColor=none;align=left;verticalAlign=middle;whiteSpace=wrap;rounded=0;fontFamily=Comic Sans MS;fontSize=14;fontStyle=1;rotation=0;" vertex="1" parent="1">
          <mxGeometry x="483" y="416" width="146" height="70" as="geometry" />
        </mxCell>
        <mxCell id="J49svgTcQpmMEFE0HYhK-25" value="allows the user from account B to assume the role" style="text;html=1;strokeColor=none;fillColor=none;align=left;verticalAlign=middle;whiteSpace=wrap;rounded=0;fontFamily=Comic Sans MS;fontSize=14;fontStyle=1;rotation=0;" vertex="1" parent="1">
          <mxGeometry x="215" y="132" width="146" height="70" as="geometry" />
        </mxCell>
        <mxCell id="J49svgTcQpmMEFE0HYhK-26" value="" style="endArrow=none;html=1;rounded=0;fillColor=#1ba1e2;strokeColor=#006EAF;strokeWidth=4;exitX=0.733;exitY=0.486;exitDx=0;exitDy=0;exitPerimeter=0;" edge="1" parent="1" source="J49svgTcQpmMEFE0HYhK-24">
          <mxGeometry width="50" height="50" relative="1" as="geometry">
            <mxPoint x="590" y="407" as="sourcePoint" />
            <mxPoint x="640" y="357" as="targetPoint" />
          </mxGeometry>
        </mxCell>
        <mxCell id="J49svgTcQpmMEFE0HYhK-27" value="" style="endArrow=none;html=1;rounded=0;fillColor=#1ba1e2;strokeColor=#006EAF;strokeWidth=4;exitX=0.103;exitY=0.829;exitDx=0;exitDy=0;exitPerimeter=0;" edge="1" parent="1" source="J49svgTcQpmMEFE0HYhK-25">
          <mxGeometry width="50" height="50" relative="1" as="geometry">
            <mxPoint x="201.57" y="280" as="sourcePoint" />
            <mxPoint x="254.57" y="221" as="targetPoint" />
          </mxGeometry>
        </mxCell>
        <mxCell id="J49svgTcQpmMEFE0HYhK-29" style="edgeStyle=orthogonalEdgeStyle;rounded=0;orthogonalLoop=1;jettySize=auto;html=1;endArrow=none;endFill=0;" edge="1" parent="1" source="J49svgTcQpmMEFE0HYhK-28" target="J49svgTcQpmMEFE0HYhK-12">
          <mxGeometry relative="1" as="geometry" />
        </mxCell>
        <mxCell id="J49svgTcQpmMEFE0HYhK-28" value="" style="sketch=0;outlineConnect=0;fontColor=#232F3E;gradientColor=none;fillColor=#BF0816;strokeColor=none;dashed=0;verticalLabelPosition=bottom;verticalAlign=top;align=center;html=1;fontSize=12;fontStyle=0;aspect=fixed;pointerEvents=1;shape=mxgraph.aws4.waf_rule;" vertex="1" parent="1">
          <mxGeometry x="180" y="312" width="40" height="40" as="geometry" />
        </mxCell>
        <mxCell id="J49svgTcQpmMEFE0HYhK-32" value="&lt;font style=&quot;font-size: 9px;&quot;&gt;allow role to access bucket&lt;/font&gt;" style="text;html=1;strokeColor=none;fillColor=none;align=center;verticalAlign=middle;whiteSpace=wrap;rounded=0;fontFamily=Comic Sans MS;fontSize=14;fontStyle=1;rotation=0;" vertex="1" parent="1">
          <mxGeometry x="111" y="289" width="145" height="30" as="geometry" />
        </mxCell>
        <mxCell id="J49svgTcQpmMEFE0HYhK-34" value="allows 3rd Party to assume the role in Account::A but with Princial identified over Policy and Condition ExternalId enabled" style="text;html=1;strokeColor=none;fillColor=none;align=left;verticalAlign=middle;whiteSpace=wrap;rounded=0;fontFamily=Comic Sans MS;fontSize=14;fontStyle=1;rotation=0;" vertex="1" parent="1">
          <mxGeometry x="479" y="486" width="320" height="60" as="geometry" />
        </mxCell>
      </root>
    </mxGraphModel>
  </diagram>
</mxfile>
